<svg xmlns="http://www.w3.org/2000/svg" xmlns:xlink="http://www.w3.org/1999/xlink" width="360" height="360" version="1.1" viewBox="0 0 270 270"><g id="surface4"><path style="fill-rule:nonzero;fill:#dfd3ca;fill-opacity:1;stroke-width:.75;stroke-linecap:square;stroke-linejoin:miter;stroke:#dfd3ca;stroke-opacity:1;stroke-miterlimit:3.25" d="M 5.398438 127.814812 L 20.648438 127.814812 L 20.648438 112.568719 L 5.398438 112.568719 Z M 5.398438 127.814812" transform="matrix(1,0,0,1,0,136.568)"/><path style="fill-rule:nonzero;fill:#ecddcb;fill-opacity:1;stroke-width:.75;stroke-linecap:square;stroke-linejoin:miter;stroke:#ecddcb;stroke-opacity:1;stroke-miterlimit:3.25" d="M 20.648438 127.814812 L 35.894531 127.814812 L 35.894531 112.568719 L 20.648438 112.568719 Z M 20.648438 127.814812" transform="matrix(1,0,0,1,0,136.568)"/><path style="fill-rule:nonzero;fill:#efe0cb;fill-opacity:1;stroke-width:.75;stroke-linecap:square;stroke-linejoin:miter;stroke:#efe0cb;stroke-opacity:1;stroke-miterlimit:3.25" d="M 35.894531 127.814812 L 51.140625 127.814812 L 51.140625 112.568719 L 35.894531 112.568719 Z M 35.894531 127.814812" transform="matrix(1,0,0,1,0,136.568)"/><path style="fill-rule:nonzero;fill:#4a579b;fill-opacity:1;stroke-width:.75;stroke-linecap:square;stroke-linejoin:miter;stroke:#4a579b;stroke-opacity:1;stroke-miterlimit:3.25" d="M 51.140625 127.814812 L 66.386719 127.814812 L 66.386719 112.568719 L 51.140625 112.568719 Z M 51.140625 127.814812" transform="matrix(1,0,0,1,0,136.568)"/><path style="fill-rule:nonzero;fill:#7d87c4;fill-opacity:1;stroke-width:.75;stroke-linecap:square;stroke-linejoin:miter;stroke:#7d87c4;stroke-opacity:1;stroke-miterlimit:3.25" d="M 66.386719 127.814812 L 81.636719 127.814812 L 81.636719 112.568719 L 66.386719 112.568719 Z M 66.386719 127.814812" transform="matrix(1,0,0,1,0,136.568)"/><path style="fill-rule:nonzero;fill:#9196c5;fill-opacity:1;stroke-width:.75;stroke-linecap:square;stroke-linejoin:miter;stroke:#9196c5;stroke-opacity:1;stroke-miterlimit:3.25" d="M 81.636719 127.814812 L 96.882813 127.814812 L 96.882813 112.568719 L 81.636719 112.568719 Z M 81.636719 127.814812" transform="matrix(1,0,0,1,0,136.568)"/><path style="fill-rule:nonzero;fill:#a0a1c6;fill-opacity:1;stroke-width:.75;stroke-linecap:square;stroke-linejoin:miter;stroke:#a0a1c6;stroke-opacity:1;stroke-miterlimit:3.25" d="M 96.882813 127.814812 L 112.128906 127.814812 L 112.128906 112.568719 L 96.882813 112.568719 Z M 96.882813 127.814812" transform="matrix(1,0,0,1,0,136.568)"/><path style="fill-rule:nonzero;fill:#a9a9c7;fill-opacity:1;stroke-width:.75;stroke-linecap:square;stroke-linejoin:miter;stroke:#a9a9c7;stroke-opacity:1;stroke-miterlimit:3.25" d="M 112.128906 127.814812 L 127.375 127.814812 L 127.375 112.568719 L 112.128906 112.568719 Z M 112.128906 127.814812" transform="matrix(1,0,0,1,0,136.568)"/><path style="fill-rule:nonzero;fill:#b1afc7;fill-opacity:1;stroke-width:.75;stroke-linecap:square;stroke-linejoin:miter;stroke:#b1afc7;stroke-opacity:1;stroke-miterlimit:3.25" d="M 127.375 127.814812 L 142.625 127.814812 L 142.625 112.568719 L 127.375 112.568719 Z M 127.375 127.814812" transform="matrix(1,0,0,1,0,136.568)"/><path style="fill-rule:nonzero;fill:#b9b5c8;fill-opacity:1;stroke-width:.75;stroke-linecap:square;stroke-linejoin:miter;stroke:#b9b5c8;stroke-opacity:1;stroke-miterlimit:3.25" d="M 142.625 127.814812 L 157.871094 127.814812 L 157.871094 112.568719 L 142.625 112.568719 Z M 142.625 127.814812" transform="matrix(1,0,0,1,0,136.568)"/><path style="fill-rule:nonzero;fill:#c0bbc8;fill-opacity:1;stroke-width:.75;stroke-linecap:square;stroke-linejoin:miter;stroke:#c0bbc8;stroke-opacity:1;stroke-miterlimit:3.25" d="M 157.871094 127.814812 L 173.117188 127.814812 L 173.117188 112.568719 L 157.871094 112.568719 Z M 157.871094 127.814812" transform="matrix(1,0,0,1,0,136.568)"/><path style="fill-rule:nonzero;fill:#c4bec9;fill-opacity:1;stroke-width:.75;stroke-linecap:square;stroke-linejoin:miter;stroke:#c4bec9;stroke-opacity:1;stroke-miterlimit:3.25" d="M 173.117188 127.814812 L 188.363281 127.814812 L 188.363281 112.568719 L 173.117188 112.568719 Z M 173.117188 127.814812" transform="matrix(1,0,0,1,0,136.568)"/><path style="fill-rule:nonzero;fill:#cbc3c9;fill-opacity:1;stroke-width:.75;stroke-linecap:square;stroke-linejoin:miter;stroke:#cbc3c9;stroke-opacity:1;stroke-miterlimit:3.25" d="M 188.363281 127.814812 L 203.613281 127.814812 L 203.613281 112.568719 L 188.363281 112.568719 Z M 188.363281 127.814812" transform="matrix(1,0,0,1,0,136.568)"/><path style="fill-rule:nonzero;fill:#d5cbca;fill-opacity:1;stroke-width:.75;stroke-linecap:square;stroke-linejoin:miter;stroke:#d5cbca;stroke-opacity:1;stroke-miterlimit:3.25" d="M 203.613281 127.814812 L 218.859375 127.814812 L 218.859375 112.568719 L 203.613281 112.568719 Z M 203.613281 127.814812" transform="matrix(1,0,0,1,0,136.568)"/><path style="fill-rule:nonzero;fill:#dbd0ca;fill-opacity:1;stroke-width:.75;stroke-linecap:square;stroke-linejoin:miter;stroke:#dbd0ca;stroke-opacity:1;stroke-miterlimit:3.25" d="M 218.859375 127.814812 L 234.105469 127.814812 L 234.105469 112.568719 L 218.859375 112.568719 Z M 218.859375 127.814812" transform="matrix(1,0,0,1,0,136.568)"/><path style="fill-rule:nonzero;fill:#e2d6cb;fill-opacity:1;stroke-width:.75;stroke-linecap:square;stroke-linejoin:miter;stroke:#e2d6cb;stroke-opacity:1;stroke-miterlimit:3.25" d="M 234.105469 127.814812 L 249.351563 127.814812 L 249.351563 112.568719 L 234.105469 112.568719 Z M 234.105469 127.814812" transform="matrix(1,0,0,1,0,136.568)"/><path style="fill-rule:nonzero;fill:#d8ceca;fill-opacity:1;stroke-width:.75;stroke-linecap:square;stroke-linejoin:miter;stroke:#d8ceca;stroke-opacity:1;stroke-miterlimit:3.25" d="M 5.398438 112.568719 L 20.648438 112.568719 L 20.648438 97.322625 L 5.398438 97.322625 Z M 5.398438 112.568719" transform="matrix(1,0,0,1,0,136.568)"/><path style="fill-rule:nonzero;fill:#ecddcb;fill-opacity:1;stroke-width:.75;stroke-linecap:square;stroke-linejoin:miter;stroke:#ecddcb;stroke-opacity:1;stroke-miterlimit:3.25" d="M 35.894531 112.568719 L 51.140625 112.568719 L 51.140625 97.322625 L 35.894531 97.322625 Z M 35.894531 112.568719" transform="matrix(1,0,0,1,0,136.568)"/><path style="fill-rule:nonzero;fill:#4a579b;fill-opacity:1;stroke-width:.75;stroke-linecap:square;stroke-linejoin:miter;stroke:#4a579b;stroke-opacity:1;stroke-miterlimit:3.25" d="M 66.386719 112.568719 L 81.636719 112.568719 L 81.636719 97.322625 L 66.386719 97.322625 Z M 66.386719 112.568719" transform="matrix(1,0,0,1,0,136.568)"/><path style="fill-rule:nonzero;fill:#9196c5;fill-opacity:1;stroke-width:.75;stroke-linecap:square;stroke-linejoin:miter;stroke:#9196c5;stroke-opacity:1;stroke-miterlimit:3.25" d="M 96.882813 112.568719 L 112.128906 112.568719 L 112.128906 97.322625 L 96.882813 97.322625 Z M 96.882813 112.568719" transform="matrix(1,0,0,1,0,136.568)"/><path style="fill-rule:nonzero;fill:#a9a9c7;fill-opacity:1;stroke-width:.75;stroke-linecap:square;stroke-linejoin:miter;stroke:#a9a9c7;stroke-opacity:1;stroke-miterlimit:3.25" d="M 127.375 112.568719 L 142.625 112.568719 L 142.625 97.322625 L 127.375 97.322625 Z M 127.375 112.568719" transform="matrix(1,0,0,1,0,136.568)"/><path style="fill-rule:nonzero;fill:#b9b5c8;fill-opacity:1;stroke-width:.75;stroke-linecap:square;stroke-linejoin:miter;stroke:#b9b5c8;stroke-opacity:1;stroke-miterlimit:3.25" d="M 157.871094 112.568719 L 173.117188 112.568719 L 173.117188 97.322625 L 157.871094 97.322625 Z M 157.871094 112.568719" transform="matrix(1,0,0,1,0,136.568)"/><path style="fill-rule:nonzero;fill:#c4bec9;fill-opacity:1;stroke-width:.75;stroke-linecap:square;stroke-linejoin:miter;stroke:#c4bec9;stroke-opacity:1;stroke-miterlimit:3.25" d="M 188.363281 112.568719 L 203.613281 112.568719 L 203.613281 97.322625 L 188.363281 97.322625 Z M 188.363281 112.568719" transform="matrix(1,0,0,1,0,136.568)"/><path style="fill-rule:nonzero;fill:#d5cbca;fill-opacity:1;stroke-width:.75;stroke-linecap:square;stroke-linejoin:miter;stroke:#d5cbca;stroke-opacity:1;stroke-miterlimit:3.25" d="M 218.859375 112.568719 L 234.105469 112.568719 L 234.105469 97.322625 L 218.859375 97.322625 Z M 218.859375 112.568719" transform="matrix(1,0,0,1,0,136.568)"/><path style="fill-rule:nonzero;fill:#e2d6cb;fill-opacity:1;stroke-width:.75;stroke-linecap:square;stroke-linejoin:miter;stroke:#e2d6cb;stroke-opacity:1;stroke-miterlimit:3.25" d="M 249.351563 112.568719 L 264.601563 112.568719 L 264.601563 97.322625 L 249.351563 97.322625 Z M 249.351563 112.568719" transform="matrix(1,0,0,1,0,136.568)"/><path style="fill-rule:nonzero;fill:#c7c1c9;fill-opacity:1;stroke-width:.75;stroke-linecap:square;stroke-linejoin:miter;stroke:#c7c1c9;stroke-opacity:1;stroke-miterlimit:3.25" d="M 5.398438 97.322625 L 20.648438 97.322625 L 20.648438 82.076531 L 5.398438 82.076531 Z M 5.398438 97.322625" transform="matrix(1,0,0,1,0,136.568)"/><path style="fill-rule:nonzero;fill:#d8ceca;fill-opacity:1;stroke-width:.75;stroke-linecap:square;stroke-linejoin:miter;stroke:#d8ceca;stroke-opacity:1;stroke-miterlimit:3.25" d="M 20.648438 97.322625 L 35.894531 97.322625 L 35.894531 82.076531 L 20.648438 82.076531 Z M 20.648438 97.322625" transform="matrix(1,0,0,1,0,136.568)"/><path style="fill-rule:nonzero;fill:#ecddcb;fill-opacity:1;stroke-width:.75;stroke-linecap:square;stroke-linejoin:miter;stroke:#ecddcb;stroke-opacity:1;stroke-miterlimit:3.25" d="M 51.140625 97.322625 L 66.386719 97.322625 L 66.386719 82.076531 L 51.140625 82.076531 Z M 51.140625 97.322625" transform="matrix(1,0,0,1,0,136.568)"/><path style="fill-rule:nonzero;fill:#7d87c4;fill-opacity:1;stroke-width:.75;stroke-linecap:square;stroke-linejoin:miter;stroke:#7d87c4;stroke-opacity:1;stroke-miterlimit:3.25" d="M 96.882813 97.322625 L 112.128906 97.322625 L 112.128906 82.076531 L 96.882813 82.076531 Z M 96.882813 97.322625" transform="matrix(1,0,0,1,0,136.568)"/><path style="fill-rule:nonzero;fill:#9196c5;fill-opacity:1;stroke-width:.75;stroke-linecap:square;stroke-linejoin:miter;stroke:#9196c5;stroke-opacity:1;stroke-miterlimit:3.25" d="M 112.128906 97.322625 L 127.375 97.322625 L 127.375 82.076531 L 112.128906 82.076531 Z M 112.128906 97.322625" transform="matrix(1,0,0,1,0,136.568)"/><path style="fill-rule:nonzero;fill:#b1afc7;fill-opacity:1;stroke-width:.75;stroke-linecap:square;stroke-linejoin:miter;stroke:#b1afc7;stroke-opacity:1;stroke-miterlimit:3.25" d="M 157.871094 97.322625 L 173.117188 97.322625 L 173.117188 82.076531 L 157.871094 82.076531 Z M 157.871094 97.322625" transform="matrix(1,0,0,1,0,136.568)"/><path style="fill-rule:nonzero;fill:#c0bbc8;fill-opacity:1;stroke-width:.75;stroke-linecap:square;stroke-linejoin:miter;stroke:#c0bbc8;stroke-opacity:1;stroke-miterlimit:3.25" d="M 188.363281 97.322625 L 203.613281 97.322625 L 203.613281 82.076531 L 188.363281 82.076531 Z M 188.363281 97.322625" transform="matrix(1,0,0,1,0,136.568)"/><path style="fill-rule:nonzero;fill:#c4bec9;fill-opacity:1;stroke-width:.75;stroke-linecap:square;stroke-linejoin:miter;stroke:#c4bec9;stroke-opacity:1;stroke-miterlimit:3.25" d="M 203.613281 97.322625 L 218.859375 97.322625 L 218.859375 82.076531 L 203.613281 82.076531 Z M 203.613281 97.322625" transform="matrix(1,0,0,1,0,136.568)"/><path style="fill-rule:nonzero;fill:#d5cbca;fill-opacity:1;stroke-width:.75;stroke-linecap:square;stroke-linejoin:miter;stroke:#d5cbca;stroke-opacity:1;stroke-miterlimit:3.25" d="M 234.105469 97.322625 L 249.351563 97.322625 L 249.351563 82.076531 L 234.105469 82.076531 Z M 234.105469 97.322625" transform="matrix(1,0,0,1,0,136.568)"/><path style="fill-rule:nonzero;fill:#dbd0ca;fill-opacity:1;stroke-width:.75;stroke-linecap:square;stroke-linejoin:miter;stroke:#dbd0ca;stroke-opacity:1;stroke-miterlimit:3.25" d="M 249.351563 97.322625 L 264.601563 97.322625 L 264.601563 82.076531 L 249.351563 82.076531 Z M 249.351563 97.322625" transform="matrix(1,0,0,1,0,136.568)"/><path style="fill-rule:nonzero;fill:#bcb8c8;fill-opacity:1;stroke-width:.75;stroke-linecap:square;stroke-linejoin:miter;stroke:#bcb8c8;stroke-opacity:1;stroke-miterlimit:3.25" d="M 5.398438 82.076531 L 20.648438 82.076531 L 20.648438 66.826531 L 5.398438 66.826531 Z M 5.398438 82.076531" transform="matrix(1,0,0,1,0,136.568)"/><path style="fill-rule:nonzero;fill:#d8ceca;fill-opacity:1;stroke-width:.75;stroke-linecap:square;stroke-linejoin:miter;stroke:#d8ceca;stroke-opacity:1;stroke-miterlimit:3.25" d="M 35.894531 82.076531 L 51.140625 82.076531 L 51.140625 66.826531 L 35.894531 66.826531 Z M 35.894531 82.076531" transform="matrix(1,0,0,1,0,136.568)"/><path style="fill-rule:nonzero;fill:#ecddcb;fill-opacity:1;stroke-width:.75;stroke-linecap:square;stroke-linejoin:miter;stroke:#ecddcb;stroke-opacity:1;stroke-miterlimit:3.25" d="M 66.386719 82.076531 L 81.636719 82.076531 L 81.636719 66.826531 L 66.386719 66.826531 Z M 66.386719 82.076531" transform="matrix(1,0,0,1,0,136.568)"/><path style="fill-rule:nonzero;fill:#9196c5;fill-opacity:1;stroke-width:.75;stroke-linecap:square;stroke-linejoin:miter;stroke:#9196c5;stroke-opacity:1;stroke-miterlimit:3.25" d="M 127.375 82.076531 L 142.625 82.076531 L 142.625 66.826531 L 127.375 66.826531 Z M 127.375 82.076531" transform="matrix(1,0,0,1,0,136.568)"/><path style="fill-rule:nonzero;fill:#a9a9c7;fill-opacity:1;stroke-width:.75;stroke-linecap:square;stroke-linejoin:miter;stroke:#a9a9c7;stroke-opacity:1;stroke-miterlimit:3.25" d="M 157.871094 82.076531 L 173.117188 82.076531 L 173.117188 66.826531 L 157.871094 66.826531 Z M 157.871094 82.076531" transform="matrix(1,0,0,1,0,136.568)"/><path style="fill-rule:nonzero;fill:#b9b5c8;fill-opacity:1;stroke-width:.75;stroke-linecap:square;stroke-linejoin:miter;stroke:#b9b5c8;stroke-opacity:1;stroke-miterlimit:3.25" d="M 188.363281 82.076531 L 203.613281 82.076531 L 203.613281 66.826531 L 188.363281 66.826531 Z M 188.363281 82.076531" transform="matrix(1,0,0,1,0,136.568)"/><path style="fill-rule:nonzero;fill:#c4bec9;fill-opacity:1;stroke-width:.75;stroke-linecap:square;stroke-linejoin:miter;stroke:#c4bec9;stroke-opacity:1;stroke-miterlimit:3.25" d="M 218.859375 82.076531 L 234.105469 82.076531 L 234.105469 66.826531 L 218.859375 66.826531 Z M 218.859375 82.076531" transform="matrix(1,0,0,1,0,136.568)"/><path style="fill-rule:nonzero;fill:#d5cbca;fill-opacity:1;stroke-width:.75;stroke-linecap:square;stroke-linejoin:miter;stroke:#d5cbca;stroke-opacity:1;stroke-miterlimit:3.25" d="M 249.351563 82.076531 L 264.601563 82.076531 L 264.601563 66.826531 L 249.351563 66.826531 Z M 249.351563 82.076531" transform="matrix(1,0,0,1,0,136.568)"/><path style="fill-rule:nonzero;fill:#adacc7;fill-opacity:1;stroke-width:.75;stroke-linecap:square;stroke-linejoin:miter;stroke:#adacc7;stroke-opacity:1;stroke-miterlimit:3.25" d="M 5.398438 66.826531 L 20.648438 66.826531 L 20.648438 51.580437 L 5.398438 51.580437 Z M 5.398438 66.826531" transform="matrix(1,0,0,1,0,136.568)"/><path style="fill-rule:nonzero;fill:#bcb8c8;fill-opacity:1;stroke-width:.75;stroke-linecap:square;stroke-linejoin:miter;stroke:#bcb8c8;stroke-opacity:1;stroke-miterlimit:3.25" d="M 20.648438 66.826531 L 35.894531 66.826531 L 35.894531 51.580437 L 20.648438 51.580437 Z M 20.648438 66.826531" transform="matrix(1,0,0,1,0,136.568)"/><path style="fill-rule:nonzero;fill:#c7c1c9;fill-opacity:1;stroke-width:.75;stroke-linecap:square;stroke-linejoin:miter;stroke:#c7c1c9;stroke-opacity:1;stroke-miterlimit:3.25" d="M 35.894531 66.826531 L 51.140625 66.826531 L 51.140625 51.580437 L 35.894531 51.580437 Z M 35.894531 66.826531" transform="matrix(1,0,0,1,0,136.568)"/><path style="fill-rule:nonzero;fill:#d8ceca;fill-opacity:1;stroke-width:.75;stroke-linecap:square;stroke-linejoin:miter;stroke:#d8ceca;stroke-opacity:1;stroke-miterlimit:3.25" d="M 51.140625 66.826531 L 66.386719 66.826531 L 66.386719 51.580437 L 51.140625 51.580437 Z M 51.140625 66.826531" transform="matrix(1,0,0,1,0,136.568)"/><path style="fill-rule:nonzero;fill:#dfd3ca;fill-opacity:1;stroke-width:.75;stroke-linecap:square;stroke-linejoin:miter;stroke:#dfd3ca;stroke-opacity:1;stroke-miterlimit:3.25" d="M 66.386719 66.826531 L 81.636719 66.826531 L 81.636719 51.580437 L 66.386719 51.580437 Z M 66.386719 66.826531" transform="matrix(1,0,0,1,0,136.568)"/><path style="fill-rule:nonzero;fill:#ecddcb;fill-opacity:1;stroke-width:.75;stroke-linecap:square;stroke-linejoin:miter;stroke:#ecddcb;stroke-opacity:1;stroke-miterlimit:3.25" d="M 81.636719 66.826531 L 96.882813 66.826531 L 96.882813 51.580437 L 81.636719 51.580437 Z M 81.636719 66.826531" transform="matrix(1,0,0,1,0,136.568)"/><path style="fill-rule:nonzero;fill:#efe0cb;fill-opacity:1;stroke-width:.75;stroke-linecap:square;stroke-linejoin:miter;stroke:#efe0cb;stroke-opacity:1;stroke-miterlimit:3.25" d="M 96.882813 66.826531 L 112.128906 66.826531 L 112.128906 51.580437 L 96.882813 51.580437 Z M 96.882813 66.826531" transform="matrix(1,0,0,1,0,136.568)"/><path style="fill-rule:nonzero;fill:#4a579b;fill-opacity:1;stroke-width:.75;stroke-linecap:square;stroke-linejoin:miter;stroke:#4a579b;stroke-opacity:1;stroke-miterlimit:3.25" d="M 112.128906 66.826531 L 127.375 66.826531 L 127.375 51.580437 L 112.128906 51.580437 Z M 112.128906 66.826531" transform="matrix(1,0,0,1,0,136.568)"/><path style="fill-rule:nonzero;fill:#7d87c4;fill-opacity:1;stroke-width:.75;stroke-linecap:square;stroke-linejoin:miter;stroke:#7d87c4;stroke-opacity:1;stroke-miterlimit:3.25" d="M 127.375 66.826531 L 142.625 66.826531 L 142.625 51.580437 L 127.375 51.580437 Z M 127.375 66.826531" transform="matrix(1,0,0,1,0,136.568)"/><path style="fill-rule:nonzero;fill:#9196c5;fill-opacity:1;stroke-width:.75;stroke-linecap:square;stroke-linejoin:miter;stroke:#9196c5;stroke-opacity:1;stroke-miterlimit:3.25" d="M 142.625 66.826531 L 157.871094 66.826531 L 157.871094 51.580437 L 142.625 51.580437 Z M 142.625 66.826531" transform="matrix(1,0,0,1,0,136.568)"/><path style="fill-rule:nonzero;fill:#a0a1c6;fill-opacity:1;stroke-width:.75;stroke-linecap:square;stroke-linejoin:miter;stroke:#a0a1c6;stroke-opacity:1;stroke-miterlimit:3.25" d="M 157.871094 66.826531 L 173.117188 66.826531 L 173.117188 51.580437 L 157.871094 51.580437 Z M 157.871094 66.826531" transform="matrix(1,0,0,1,0,136.568)"/><path style="fill-rule:nonzero;fill:#a9a9c7;fill-opacity:1;stroke-width:.75;stroke-linecap:square;stroke-linejoin:miter;stroke:#a9a9c7;stroke-opacity:1;stroke-miterlimit:3.25" d="M 173.117188 66.826531 L 188.363281 66.826531 L 188.363281 51.580437 L 173.117188 51.580437 Z M 173.117188 66.826531" transform="matrix(1,0,0,1,0,136.568)"/><path style="fill-rule:nonzero;fill:#b9b5c8;fill-opacity:1;stroke-width:.75;stroke-linecap:square;stroke-linejoin:miter;stroke:#b9b5c8;stroke-opacity:1;stroke-miterlimit:3.25" d="M 203.613281 66.826531 L 218.859375 66.826531 L 218.859375 51.580437 L 203.613281 51.580437 Z M 203.613281 66.826531" transform="matrix(1,0,0,1,0,136.568)"/><path style="fill-rule:nonzero;fill:#c0bbc8;fill-opacity:1;stroke-width:.75;stroke-linecap:square;stroke-linejoin:miter;stroke:#c0bbc8;stroke-opacity:1;stroke-miterlimit:3.25" d="M 218.859375 66.826531 L 234.105469 66.826531 L 234.105469 51.580437 L 218.859375 51.580437 Z M 218.859375 66.826531" transform="matrix(1,0,0,1,0,136.568)"/><path style="fill-rule:nonzero;fill:#c4bec9;fill-opacity:1;stroke-width:.75;stroke-linecap:square;stroke-linejoin:miter;stroke:#c4bec9;stroke-opacity:1;stroke-miterlimit:3.25" d="M 234.105469 66.826531 L 249.351563 66.826531 L 249.351563 51.580437 L 234.105469 51.580437 Z M 234.105469 66.826531" transform="matrix(1,0,0,1,0,136.568)"/><path style="fill-rule:nonzero;fill:#cbc3c9;fill-opacity:1;stroke-width:.75;stroke-linecap:square;stroke-linejoin:miter;stroke:#cbc3c9;stroke-opacity:1;stroke-miterlimit:3.25" d="M 249.351563 66.826531 L 264.601563 66.826531 L 264.601563 51.580437 L 249.351563 51.580437 Z M 249.351563 66.826531" transform="matrix(1,0,0,1,0,136.568)"/><path style="fill-rule:nonzero;fill:#9c9ec6;fill-opacity:1;stroke-width:.75;stroke-linecap:square;stroke-linejoin:miter;stroke:#9c9ec6;stroke-opacity:1;stroke-miterlimit:3.25" d="M 5.398438 51.580437 L 20.648438 51.580437 L 20.648438 36.334344 L 5.398438 36.334344 Z M 5.398438 51.580437" transform="matrix(1,0,0,1,0,136.568)"/><path style="fill-rule:nonzero;fill:#d8ceca;fill-opacity:1;stroke-width:.75;stroke-linecap:square;stroke-linejoin:miter;stroke:#d8ceca;stroke-opacity:1;stroke-miterlimit:3.25" d="M 66.386719 51.580437 L 81.636719 51.580437 L 81.636719 36.334344 L 66.386719 36.334344 Z M 66.386719 51.580437" transform="matrix(1,0,0,1,0,136.568)"/><path style="fill-rule:nonzero;fill:#ecddcb;fill-opacity:1;stroke-width:.75;stroke-linecap:square;stroke-linejoin:miter;stroke:#ecddcb;stroke-opacity:1;stroke-miterlimit:3.25" d="M 96.882813 51.580437 L 112.128906 51.580437 L 112.128906 36.334344 L 96.882813 36.334344 Z M 96.882813 51.580437" transform="matrix(1,0,0,1,0,136.568)"/><path style="fill-rule:nonzero;fill:#9196c5;fill-opacity:1;stroke-width:.75;stroke-linecap:square;stroke-linejoin:miter;stroke:#9196c5;stroke-opacity:1;stroke-miterlimit:3.25" d="M 157.871094 51.580437 L 173.117188 51.580437 L 173.117188 36.334344 L 157.871094 36.334344 Z M 157.871094 51.580437" transform="matrix(1,0,0,1,0,136.568)"/><path style="fill-rule:nonzero;fill:#a9a9c7;fill-opacity:1;stroke-width:.75;stroke-linecap:square;stroke-linejoin:miter;stroke:#a9a9c7;stroke-opacity:1;stroke-miterlimit:3.25" d="M 188.363281 51.580437 L 203.613281 51.580437 L 203.613281 36.334344 L 188.363281 36.334344 Z M 188.363281 51.580437" transform="matrix(1,0,0,1,0,136.568)"/><path style="fill-rule:nonzero;fill:#c4bec9;fill-opacity:1;stroke-width:.75;stroke-linecap:square;stroke-linejoin:miter;stroke:#c4bec9;stroke-opacity:1;stroke-miterlimit:3.25" d="M 249.351563 51.580437 L 264.601563 51.580437 L 264.601563 36.334344 L 249.351563 36.334344 Z M 249.351563 51.580437" transform="matrix(1,0,0,1,0,136.568)"/><path style="fill-rule:nonzero;fill:#7983c4;fill-opacity:1;stroke-width:.75;stroke-linecap:square;stroke-linejoin:miter;stroke:#7983c4;stroke-opacity:1;stroke-miterlimit:3.25" d="M 5.398438 36.334344 L 20.648438 36.334344 L 20.648438 21.08825 L 5.398438 21.08825 Z M 5.398438 36.334344" transform="matrix(1,0,0,1,0,136.568)"/><path style="fill-rule:nonzero;fill:#9c9ec6;fill-opacity:1;stroke-width:.75;stroke-linecap:square;stroke-linejoin:miter;stroke:#9c9ec6;stroke-opacity:1;stroke-miterlimit:3.25" d="M 20.648438 36.334344 L 35.894531 36.334344 L 35.894531 21.08825 L 20.648438 21.08825 Z M 20.648438 36.334344" transform="matrix(1,0,0,1,0,136.568)"/><path style="fill-rule:nonzero;fill:#adacc7;fill-opacity:1;stroke-width:.75;stroke-linecap:square;stroke-linejoin:miter;stroke:#adacc7;stroke-opacity:1;stroke-miterlimit:3.25" d="M 35.894531 36.334344 L 51.140625 36.334344 L 51.140625 21.08825 L 35.894531 21.08825 Z M 35.894531 36.334344" transform="matrix(1,0,0,1,0,136.568)"/><path style="fill-rule:nonzero;fill:#bcb8c8;fill-opacity:1;stroke-width:.75;stroke-linecap:square;stroke-linejoin:miter;stroke:#bcb8c8;stroke-opacity:1;stroke-miterlimit:3.25" d="M 51.140625 36.334344 L 66.386719 36.334344 L 66.386719 21.08825 L 51.140625 21.08825 Z M 51.140625 36.334344" transform="matrix(1,0,0,1,0,136.568)"/><path style="fill-rule:nonzero;fill:#c7c1c9;fill-opacity:1;stroke-width:.75;stroke-linecap:square;stroke-linejoin:miter;stroke:#c7c1c9;stroke-opacity:1;stroke-miterlimit:3.25" d="M 66.386719 36.334344 L 81.636719 36.334344 L 81.636719 21.08825 L 66.386719 21.08825 Z M 66.386719 36.334344" transform="matrix(1,0,0,1,0,136.568)"/><path style="fill-rule:nonzero;fill:#d8ceca;fill-opacity:1;stroke-width:.75;stroke-linecap:square;stroke-linejoin:miter;stroke:#d8ceca;stroke-opacity:1;stroke-miterlimit:3.25" d="M 81.636719 36.334344 L 96.882813 36.334344 L 96.882813 21.08825 L 81.636719 21.08825 Z M 81.636719 36.334344" transform="matrix(1,0,0,1,0,136.568)"/><path style="fill-rule:nonzero;fill:#dfd3ca;fill-opacity:1;stroke-width:.75;stroke-linecap:square;stroke-linejoin:miter;stroke:#dfd3ca;stroke-opacity:1;stroke-miterlimit:3.25" d="M 96.882813 36.334344 L 112.128906 36.334344 L 112.128906 21.08825 L 96.882813 21.08825 Z M 96.882813 36.334344" transform="matrix(1,0,0,1,0,136.568)"/><path style="fill-rule:nonzero;fill:#ecddcb;fill-opacity:1;stroke-width:.75;stroke-linecap:square;stroke-linejoin:miter;stroke:#ecddcb;stroke-opacity:1;stroke-miterlimit:3.25" d="M 112.128906 36.334344 L 127.375 36.334344 L 127.375 21.08825 L 112.128906 21.08825 Z M 112.128906 36.334344" transform="matrix(1,0,0,1,0,136.568)"/><path style="fill-rule:nonzero;fill:#efe0cb;fill-opacity:1;stroke-width:.75;stroke-linecap:square;stroke-linejoin:miter;stroke:#efe0cb;stroke-opacity:1;stroke-miterlimit:3.25" d="M 127.375 36.334344 L 142.625 36.334344 L 142.625 21.08825 L 127.375 21.08825 Z M 127.375 36.334344" transform="matrix(1,0,0,1,0,136.568)"/><path style="fill-rule:nonzero;fill:#4a579b;fill-opacity:1;stroke-width:.75;stroke-linecap:square;stroke-linejoin:miter;stroke:#4a579b;stroke-opacity:1;stroke-miterlimit:3.25" d="M 142.625 36.334344 L 157.871094 36.334344 L 157.871094 21.08825 L 142.625 21.08825 Z M 142.625 36.334344" transform="matrix(1,0,0,1,0,136.568)"/><path style="fill-rule:nonzero;fill:#9196c5;fill-opacity:1;stroke-width:.75;stroke-linecap:square;stroke-linejoin:miter;stroke:#9196c5;stroke-opacity:1;stroke-miterlimit:3.25" d="M 173.117188 36.334344 L 188.363281 36.334344 L 188.363281 21.08825 L 173.117188 21.08825 Z M 173.117188 36.334344" transform="matrix(1,0,0,1,0,136.568)"/><path style="fill-rule:nonzero;fill:#a0a1c6;fill-opacity:1;stroke-width:.75;stroke-linecap:square;stroke-linejoin:miter;stroke:#a0a1c6;stroke-opacity:1;stroke-miterlimit:3.25" d="M 188.363281 36.334344 L 203.613281 36.334344 L 203.613281 21.08825 L 188.363281 21.08825 Z M 188.363281 36.334344" transform="matrix(1,0,0,1,0,136.568)"/><path style="fill-rule:nonzero;fill:#a9a9c7;fill-opacity:1;stroke-width:.75;stroke-linecap:square;stroke-linejoin:miter;stroke:#a9a9c7;stroke-opacity:1;stroke-miterlimit:3.25" d="M 203.613281 36.334344 L 218.859375 36.334344 L 218.859375 21.08825 L 203.613281 21.08825 Z M 203.613281 36.334344" transform="matrix(1,0,0,1,0,136.568)"/><path style="fill-rule:nonzero;fill:#b1afc7;fill-opacity:1;stroke-width:.75;stroke-linecap:square;stroke-linejoin:miter;stroke:#b1afc7;stroke-opacity:1;stroke-miterlimit:3.25" d="M 218.859375 36.334344 L 234.105469 36.334344 L 234.105469 21.08825 L 218.859375 21.08825 Z M 218.859375 36.334344" transform="matrix(1,0,0,1,0,136.568)"/><path style="fill-rule:nonzero;fill:#b9b5c8;fill-opacity:1;stroke-width:.75;stroke-linecap:square;stroke-linejoin:miter;stroke:#b9b5c8;stroke-opacity:1;stroke-miterlimit:3.25" d="M 234.105469 36.334344 L 249.351563 36.334344 L 249.351563 21.08825 L 234.105469 21.08825 Z M 234.105469 36.334344" transform="matrix(1,0,0,1,0,136.568)"/><path style="fill-rule:nonzero;fill:#c0bbc8;fill-opacity:1;stroke-width:.75;stroke-linecap:square;stroke-linejoin:miter;stroke:#c0bbc8;stroke-opacity:1;stroke-miterlimit:3.25" d="M 249.351563 36.334344 L 264.601563 36.334344 L 264.601563 21.08825 L 249.351563 21.08825 Z M 249.351563 36.334344" transform="matrix(1,0,0,1,0,136.568)"/><path style="fill-rule:nonzero;fill:#f6e5cc;fill-opacity:1;stroke-width:.75;stroke-linecap:square;stroke-linejoin:miter;stroke:#f6e5cc;stroke-opacity:1;stroke-miterlimit:3.25" d="M 5.398438 21.08825 L 20.648438 21.08825 L 20.648438 5.83825 L 5.398438 5.83825 Z M 5.398438 21.08825" transform="matrix(1,0,0,1,0,136.568)"/><path style="fill-rule:nonzero;fill:#9c9ec6;fill-opacity:1;stroke-width:.75;stroke-linecap:square;stroke-linejoin:miter;stroke:#9c9ec6;stroke-opacity:1;stroke-miterlimit:3.25" d="M 35.894531 21.08825 L 51.140625 21.08825 L 51.140625 5.83825 L 35.894531 5.83825 Z M 35.894531 21.08825" transform="matrix(1,0,0,1,0,136.568)"/><path style="fill-rule:nonzero;fill:#d8ceca;fill-opacity:1;stroke-width:.75;stroke-linecap:square;stroke-linejoin:miter;stroke:#d8ceca;stroke-opacity:1;stroke-miterlimit:3.25" d="M 96.882813 21.08825 L 112.128906 21.08825 L 112.128906 5.83825 L 96.882813 5.83825 Z M 96.882813 21.08825" transform="matrix(1,0,0,1,0,136.568)"/><path style="fill-rule:nonzero;fill:#ecddcb;fill-opacity:1;stroke-width:.75;stroke-linecap:square;stroke-linejoin:miter;stroke:#ecddcb;stroke-opacity:1;stroke-miterlimit:3.25" d="M 127.375 21.08825 L 142.625 21.08825 L 142.625 5.83825 L 127.375 5.83825 Z M 127.375 21.08825" transform="matrix(1,0,0,1,0,136.568)"/><path style="fill-rule:nonzero;fill:#4a579b;fill-opacity:1;stroke-width:.75;stroke-linecap:square;stroke-linejoin:miter;stroke:#4a579b;stroke-opacity:1;stroke-miterlimit:3.25" d="M 157.871094 21.08825 L 173.117188 21.08825 L 173.117188 5.83825 L 157.871094 5.83825 Z M 157.871094 21.08825" transform="matrix(1,0,0,1,0,136.568)"/><path style="fill-rule:nonzero;fill:#9196c5;fill-opacity:1;stroke-width:.75;stroke-linecap:square;stroke-linejoin:miter;stroke:#9196c5;stroke-opacity:1;stroke-miterlimit:3.25" d="M 188.363281 21.08825 L 203.613281 21.08825 L 203.613281 5.83825 L 188.363281 5.83825 Z M 188.363281 21.08825" transform="matrix(1,0,0,1,0,136.568)"/><path style="fill-rule:nonzero;fill:#b9b5c8;fill-opacity:1;stroke-width:.75;stroke-linecap:square;stroke-linejoin:miter;stroke:#b9b5c8;stroke-opacity:1;stroke-miterlimit:3.25" d="M 249.351563 21.08825 L 264.601563 21.08825 L 264.601563 5.83825 L 249.351563 5.83825 Z M 249.351563 21.08825" transform="matrix(1,0,0,1,0,136.568)"/><path style="fill-rule:nonzero;fill:#e5d8cb;fill-opacity:1;stroke-width:.75;stroke-linecap:square;stroke-linejoin:miter;stroke:#e5d8cb;stroke-opacity:1;stroke-miterlimit:3.25" d="M 5.398438 5.83825 L 20.648438 5.83825 L 20.648438 -9.407844 L 5.398438 -9.407844 Z M 5.398438 5.83825" transform="matrix(1,0,0,1,0,136.568)"/><path style="fill-rule:nonzero;fill:#f6e5cc;fill-opacity:1;stroke-width:.75;stroke-linecap:square;stroke-linejoin:miter;stroke:#f6e5cc;stroke-opacity:1;stroke-miterlimit:3.25" d="M 20.648438 5.83825 L 35.894531 5.83825 L 35.894531 -9.407844 L 20.648438 -9.407844 Z M 20.648438 5.83825" transform="matrix(1,0,0,1,0,136.568)"/><path style="fill-rule:nonzero;fill:#9c9ec6;fill-opacity:1;stroke-width:.75;stroke-linecap:square;stroke-linejoin:miter;stroke:#9c9ec6;stroke-opacity:1;stroke-miterlimit:3.25" d="M 51.140625 5.83825 L 66.386719 5.83825 L 66.386719 -9.407844 L 51.140625 -9.407844 Z M 51.140625 5.83825" transform="matrix(1,0,0,1,0,136.568)"/><path style="fill-rule:nonzero;fill:#adacc7;fill-opacity:1;stroke-width:.75;stroke-linecap:square;stroke-linejoin:miter;stroke:#adacc7;stroke-opacity:1;stroke-miterlimit:3.25" d="M 66.386719 5.83825 L 81.636719 5.83825 L 81.636719 -9.407844 L 66.386719 -9.407844 Z M 66.386719 5.83825" transform="matrix(1,0,0,1,0,136.568)"/><path style="fill-rule:nonzero;fill:#c7c1c9;fill-opacity:1;stroke-width:.75;stroke-linecap:square;stroke-linejoin:miter;stroke:#c7c1c9;stroke-opacity:1;stroke-miterlimit:3.25" d="M 96.882813 5.83825 L 112.128906 5.83825 L 112.128906 -9.407844 L 96.882813 -9.407844 Z M 96.882813 5.83825" transform="matrix(1,0,0,1,0,136.568)"/><path style="fill-rule:nonzero;fill:#d8ceca;fill-opacity:1;stroke-width:.75;stroke-linecap:square;stroke-linejoin:miter;stroke:#d8ceca;stroke-opacity:1;stroke-miterlimit:3.25" d="M 112.128906 5.83825 L 127.375 5.83825 L 127.375 -9.407844 L 112.128906 -9.407844 Z M 112.128906 5.83825" transform="matrix(1,0,0,1,0,136.568)"/><path style="fill-rule:nonzero;fill:#ecddcb;fill-opacity:1;stroke-width:.75;stroke-linecap:square;stroke-linejoin:miter;stroke:#ecddcb;stroke-opacity:1;stroke-miterlimit:3.25" d="M 142.625 5.83825 L 157.871094 5.83825 L 157.871094 -9.407844 L 142.625 -9.407844 Z M 142.625 5.83825" transform="matrix(1,0,0,1,0,136.568)"/><path style="fill-rule:nonzero;fill:#efe0cb;fill-opacity:1;stroke-width:.75;stroke-linecap:square;stroke-linejoin:miter;stroke:#efe0cb;stroke-opacity:1;stroke-miterlimit:3.25" d="M 157.871094 5.83825 L 173.117188 5.83825 L 173.117188 -9.407844 L 157.871094 -9.407844 Z M 157.871094 5.83825" transform="matrix(1,0,0,1,0,136.568)"/><path style="fill-rule:nonzero;fill:#7d87c4;fill-opacity:1;stroke-width:.75;stroke-linecap:square;stroke-linejoin:miter;stroke:#7d87c4;stroke-opacity:1;stroke-miterlimit:3.25" d="M 188.363281 5.83825 L 203.613281 5.83825 L 203.613281 -9.407844 L 188.363281 -9.407844 Z M 188.363281 5.83825" transform="matrix(1,0,0,1,0,136.568)"/><path style="fill-rule:nonzero;fill:#9196c5;fill-opacity:1;stroke-width:.75;stroke-linecap:square;stroke-linejoin:miter;stroke:#9196c5;stroke-opacity:1;stroke-miterlimit:3.25" d="M 203.613281 5.83825 L 218.859375 5.83825 L 218.859375 -9.407844 L 203.613281 -9.407844 Z M 203.613281 5.83825" transform="matrix(1,0,0,1,0,136.568)"/><path style="fill-rule:nonzero;fill:#a9a9c7;fill-opacity:1;stroke-width:.75;stroke-linecap:square;stroke-linejoin:miter;stroke:#a9a9c7;stroke-opacity:1;stroke-miterlimit:3.25" d="M 234.105469 5.83825 L 249.351563 5.83825 L 249.351563 -9.407844 L 234.105469 -9.407844 Z M 234.105469 5.83825" transform="matrix(1,0,0,1,0,136.568)"/><path style="fill-rule:nonzero;fill:#b1afc7;fill-opacity:1;stroke-width:.75;stroke-linecap:square;stroke-linejoin:miter;stroke:#b1afc7;stroke-opacity:1;stroke-miterlimit:3.25" d="M 249.351563 5.83825 L 264.601563 5.83825 L 264.601563 -9.407844 L 249.351563 -9.407844 Z M 249.351563 5.83825" transform="matrix(1,0,0,1,0,136.568)"/><path style="fill-rule:nonzero;fill:#cec6c9;fill-opacity:1;stroke-width:.75;stroke-linecap:square;stroke-linejoin:miter;stroke:#cec6c9;stroke-opacity:1;stroke-miterlimit:3.25" d="M 5.398438 -9.407844 L 20.648438 -9.407844 L 20.648438 -24.653938 L 5.398438 -24.653938 Z M 5.398438 -9.407844" transform="matrix(1,0,0,1,0,136.568)"/><path style="fill-rule:nonzero;fill:#f6e5cc;fill-opacity:1;stroke-width:.75;stroke-linecap:square;stroke-linejoin:miter;stroke:#f6e5cc;stroke-opacity:1;stroke-miterlimit:3.25" d="M 35.894531 -9.407844 L 51.140625 -9.407844 L 51.140625 -24.653938 L 35.894531 -24.653938 Z M 35.894531 -9.407844" transform="matrix(1,0,0,1,0,136.568)"/><path style="fill-rule:nonzero;fill:#9c9ec6;fill-opacity:1;stroke-width:.75;stroke-linecap:square;stroke-linejoin:miter;stroke:#9c9ec6;stroke-opacity:1;stroke-miterlimit:3.25" d="M 66.386719 -9.407844 L 81.636719 -9.407844 L 81.636719 -24.653938 L 66.386719 -24.653938 Z M 66.386719 -9.407844" transform="matrix(1,0,0,1,0,136.568)"/><path style="fill-rule:nonzero;fill:#bcb8c8;fill-opacity:1;stroke-width:.75;stroke-linecap:square;stroke-linejoin:miter;stroke:#bcb8c8;stroke-opacity:1;stroke-miterlimit:3.25" d="M 96.882813 -9.407844 L 112.128906 -9.407844 L 112.128906 -24.653938 L 96.882813 -24.653938 Z M 96.882813 -9.407844" transform="matrix(1,0,0,1,0,136.568)"/><path style="fill-rule:nonzero;fill:#d8ceca;fill-opacity:1;stroke-width:.75;stroke-linecap:square;stroke-linejoin:miter;stroke:#d8ceca;stroke-opacity:1;stroke-miterlimit:3.25" d="M 127.375 -9.407844 L 142.625 -9.407844 L 142.625 -24.653938 L 127.375 -24.653938 Z M 127.375 -9.407844" transform="matrix(1,0,0,1,0,136.568)"/><path style="fill-rule:nonzero;fill:#ecddcb;fill-opacity:1;stroke-width:.75;stroke-linecap:square;stroke-linejoin:miter;stroke:#ecddcb;stroke-opacity:1;stroke-miterlimit:3.25" d="M 157.871094 -9.407844 L 173.117188 -9.407844 L 173.117188 -24.653938 L 157.871094 -24.653938 Z M 157.871094 -9.407844" transform="matrix(1,0,0,1,0,136.568)"/><path style="fill-rule:nonzero;fill:#4a579b;fill-opacity:1;stroke-width:.75;stroke-linecap:square;stroke-linejoin:miter;stroke:#4a579b;stroke-opacity:1;stroke-miterlimit:3.25" d="M 188.363281 -9.407844 L 203.613281 -9.407844 L 203.613281 -24.653938 L 188.363281 -24.653938 Z M 188.363281 -9.407844" transform="matrix(1,0,0,1,0,136.568)"/><path style="fill-rule:nonzero;fill:#9196c5;fill-opacity:1;stroke-width:.75;stroke-linecap:square;stroke-linejoin:miter;stroke:#9196c5;stroke-opacity:1;stroke-miterlimit:3.25" d="M 218.859375 -9.407844 L 234.105469 -9.407844 L 234.105469 -24.653938 L 218.859375 -24.653938 Z M 218.859375 -9.407844" transform="matrix(1,0,0,1,0,136.568)"/><path style="fill-rule:nonzero;fill:#a9a9c7;fill-opacity:1;stroke-width:.75;stroke-linecap:square;stroke-linejoin:miter;stroke:#a9a9c7;stroke-opacity:1;stroke-miterlimit:3.25" d="M 249.351563 -9.407844 L 264.601563 -9.407844 L 264.601563 -24.653938 L 249.351563 -24.653938 Z M 249.351563 -9.407844" transform="matrix(1,0,0,1,0,136.568)"/><path style="fill-rule:nonzero;fill:#b5b3c8;fill-opacity:1;stroke-width:.75;stroke-linecap:square;stroke-linejoin:miter;stroke:#b5b3c8;stroke-opacity:1;stroke-miterlimit:3.25" d="M 5.398438 -24.653938 L 20.648438 -24.653938 L 20.648438 -39.900031 L 5.398438 -39.900031 Z M 5.398438 -24.653938" transform="matrix(1,0,0,1,0,136.568)"/><path style="fill-rule:nonzero;fill:#cec6c9;fill-opacity:1;stroke-width:.75;stroke-linecap:square;stroke-linejoin:miter;stroke:#cec6c9;stroke-opacity:1;stroke-miterlimit:3.25" d="M 20.648438 -24.653938 L 35.894531 -24.653938 L 35.894531 -39.900031 L 20.648438 -39.900031 Z M 20.648438 -24.653938" transform="matrix(1,0,0,1,0,136.568)"/><path style="fill-rule:nonzero;fill:#e5d8cb;fill-opacity:1;stroke-width:.75;stroke-linecap:square;stroke-linejoin:miter;stroke:#e5d8cb;stroke-opacity:1;stroke-miterlimit:3.25" d="M 35.894531 -24.653938 L 51.140625 -24.653938 L 51.140625 -39.900031 L 35.894531 -39.900031 Z M 35.894531 -24.653938" transform="matrix(1,0,0,1,0,136.568)"/><path style="fill-rule:nonzero;fill:#f6e5cc;fill-opacity:1;stroke-width:.75;stroke-linecap:square;stroke-linejoin:miter;stroke:#f6e5cc;stroke-opacity:1;stroke-miterlimit:3.25" d="M 51.140625 -24.653938 L 66.386719 -24.653938 L 66.386719 -39.900031 L 51.140625 -39.900031 Z M 51.140625 -24.653938" transform="matrix(1,0,0,1,0,136.568)"/><path style="fill-rule:nonzero;fill:#7983c4;fill-opacity:1;stroke-width:.75;stroke-linecap:square;stroke-linejoin:miter;stroke:#7983c4;stroke-opacity:1;stroke-miterlimit:3.25" d="M 66.386719 -24.653938 L 81.636719 -24.653938 L 81.636719 -39.900031 L 66.386719 -39.900031 Z M 66.386719 -24.653938" transform="matrix(1,0,0,1,0,136.568)"/><path style="fill-rule:nonzero;fill:#9c9ec6;fill-opacity:1;stroke-width:.75;stroke-linecap:square;stroke-linejoin:miter;stroke:#9c9ec6;stroke-opacity:1;stroke-miterlimit:3.25" d="M 81.636719 -24.653938 L 96.882813 -24.653938 L 96.882813 -39.900031 L 81.636719 -39.900031 Z M 81.636719 -24.653938" transform="matrix(1,0,0,1,0,136.568)"/><path style="fill-rule:nonzero;fill:#bcb8c8;fill-opacity:1;stroke-width:.75;stroke-linecap:square;stroke-linejoin:miter;stroke:#bcb8c8;stroke-opacity:1;stroke-miterlimit:3.25" d="M 112.128906 -24.653938 L 127.375 -24.653938 L 127.375 -39.900031 L 112.128906 -39.900031 Z M 112.128906 -24.653938" transform="matrix(1,0,0,1,0,136.568)"/><path style="fill-rule:nonzero;fill:#c7c1c9;fill-opacity:1;stroke-width:.75;stroke-linecap:square;stroke-linejoin:miter;stroke:#c7c1c9;stroke-opacity:1;stroke-miterlimit:3.25" d="M 127.375 -24.653938 L 142.625 -24.653938 L 142.625 -39.900031 L 127.375 -39.900031 Z M 127.375 -24.653938" transform="matrix(1,0,0,1,0,136.568)"/><path style="fill-rule:nonzero;fill:#d8ceca;fill-opacity:1;stroke-width:.75;stroke-linecap:square;stroke-linejoin:miter;stroke:#d8ceca;stroke-opacity:1;stroke-miterlimit:3.25" d="M 142.625 -24.653938 L 157.871094 -24.653938 L 157.871094 -39.900031 L 142.625 -39.900031 Z M 142.625 -24.653938" transform="matrix(1,0,0,1,0,136.568)"/><path style="fill-rule:nonzero;fill:#dfd3ca;fill-opacity:1;stroke-width:.75;stroke-linecap:square;stroke-linejoin:miter;stroke:#dfd3ca;stroke-opacity:1;stroke-miterlimit:3.25" d="M 157.871094 -24.653938 L 173.117188 -24.653938 L 173.117188 -39.900031 L 157.871094 -39.900031 Z M 157.871094 -24.653938" transform="matrix(1,0,0,1,0,136.568)"/><path style="fill-rule:nonzero;fill:#ecddcb;fill-opacity:1;stroke-width:.75;stroke-linecap:square;stroke-linejoin:miter;stroke:#ecddcb;stroke-opacity:1;stroke-miterlimit:3.25" d="M 173.117188 -24.653938 L 188.363281 -24.653938 L 188.363281 -39.900031 L 173.117188 -39.900031 Z M 173.117188 -24.653938" transform="matrix(1,0,0,1,0,136.568)"/><path style="fill-rule:nonzero;fill:#efe0cb;fill-opacity:1;stroke-width:.75;stroke-linecap:square;stroke-linejoin:miter;stroke:#efe0cb;stroke-opacity:1;stroke-miterlimit:3.25" d="M 188.363281 -24.653938 L 203.613281 -24.653938 L 203.613281 -39.900031 L 188.363281 -39.900031 Z M 188.363281 -24.653938" transform="matrix(1,0,0,1,0,136.568)"/><path style="fill-rule:nonzero;fill:#7d87c4;fill-opacity:1;stroke-width:.75;stroke-linecap:square;stroke-linejoin:miter;stroke:#7d87c4;stroke-opacity:1;stroke-miterlimit:3.25" d="M 218.859375 -24.653938 L 234.105469 -24.653938 L 234.105469 -39.900031 L 218.859375 -39.900031 Z M 218.859375 -24.653938" transform="matrix(1,0,0,1,0,136.568)"/><path style="fill-rule:nonzero;fill:#9196c5;fill-opacity:1;stroke-width:.75;stroke-linecap:square;stroke-linejoin:miter;stroke:#9196c5;stroke-opacity:1;stroke-miterlimit:3.25" d="M 234.105469 -24.653938 L 249.351563 -24.653938 L 249.351563 -39.900031 L 234.105469 -39.900031 Z M 234.105469 -24.653938" transform="matrix(1,0,0,1,0,136.568)"/><path style="fill-rule:nonzero;fill:#a0a1c6;fill-opacity:1;stroke-width:.75;stroke-linecap:square;stroke-linejoin:miter;stroke:#a0a1c6;stroke-opacity:1;stroke-miterlimit:3.25" d="M 249.351563 -24.653938 L 264.601563 -24.653938 L 264.601563 -39.900031 L 249.351563 -39.900031 Z M 249.351563 -24.653938" transform="matrix(1,0,0,1,0,136.568)"/><path style="fill-rule:nonzero;fill:#979ac5;fill-opacity:1;stroke-width:.75;stroke-linecap:square;stroke-linejoin:miter;stroke:#979ac5;stroke-opacity:1;stroke-miterlimit:3.25" d="M 5.398438 -39.900031 L 20.648438 -39.900031 L 20.648438 -55.150031 L 5.398438 -55.150031 Z M 5.398438 -39.900031" transform="matrix(1,0,0,1,0,136.568)"/><path style="fill-rule:nonzero;fill:#f6e5cc;fill-opacity:1;stroke-width:.75;stroke-linecap:square;stroke-linejoin:miter;stroke:#f6e5cc;stroke-opacity:1;stroke-miterlimit:3.25" d="M 66.386719 -39.900031 L 81.636719 -39.900031 L 81.636719 -55.150031 L 66.386719 -55.150031 Z M 66.386719 -39.900031" transform="matrix(1,0,0,1,0,136.568)"/><path style="fill-rule:nonzero;fill:#9c9ec6;fill-opacity:1;stroke-width:.75;stroke-linecap:square;stroke-linejoin:miter;stroke:#9c9ec6;stroke-opacity:1;stroke-miterlimit:3.25" d="M 96.882813 -39.900031 L 112.128906 -39.900031 L 112.128906 -55.150031 L 96.882813 -55.150031 Z M 96.882813 -39.900031" transform="matrix(1,0,0,1,0,136.568)"/><path style="fill-rule:nonzero;fill:#d8ceca;fill-opacity:1;stroke-width:.75;stroke-linecap:square;stroke-linejoin:miter;stroke:#d8ceca;stroke-opacity:1;stroke-miterlimit:3.25" d="M 157.871094 -39.900031 L 173.117188 -39.900031 L 173.117188 -55.150031 L 157.871094 -55.150031 Z M 157.871094 -39.900031" transform="matrix(1,0,0,1,0,136.568)"/><path style="fill-rule:nonzero;fill:#ecddcb;fill-opacity:1;stroke-width:.75;stroke-linecap:square;stroke-linejoin:miter;stroke:#ecddcb;stroke-opacity:1;stroke-miterlimit:3.25" d="M 188.363281 -39.900031 L 203.613281 -39.900031 L 203.613281 -55.150031 L 188.363281 -55.150031 Z M 188.363281 -39.900031" transform="matrix(1,0,0,1,0,136.568)"/><path style="fill-rule:nonzero;fill:#9196c5;fill-opacity:1;stroke-width:.75;stroke-linecap:square;stroke-linejoin:miter;stroke:#9196c5;stroke-opacity:1;stroke-miterlimit:3.25" d="M 249.351563 -39.900031 L 264.601563 -39.900031 L 264.601563 -55.150031 L 249.351563 -55.150031 Z M 249.351563 -39.900031" transform="matrix(1,0,0,1,0,136.568)"/><path style="fill-rule:nonzero;fill:#f2e3cc;fill-opacity:1;stroke-width:.75;stroke-linecap:square;stroke-linejoin:miter;stroke:#f2e3cc;stroke-opacity:1;stroke-miterlimit:3.25" d="M 5.398438 -55.150031 L 20.648438 -55.150031 L 20.648438 -70.396125 L 5.398438 -70.396125 Z M 5.398438 -55.150031" transform="matrix(1,0,0,1,0,136.568)"/><path style="fill-rule:nonzero;fill:#979ac5;fill-opacity:1;stroke-width:.75;stroke-linecap:square;stroke-linejoin:miter;stroke:#979ac5;stroke-opacity:1;stroke-miterlimit:3.25" d="M 20.648438 -55.150031 L 35.894531 -55.150031 L 35.894531 -70.396125 L 20.648438 -70.396125 Z M 20.648438 -55.150031" transform="matrix(1,0,0,1,0,136.568)"/><path style="fill-rule:nonzero;fill:#b5b3c8;fill-opacity:1;stroke-width:.75;stroke-linecap:square;stroke-linejoin:miter;stroke:#b5b3c8;stroke-opacity:1;stroke-miterlimit:3.25" d="M 35.894531 -55.150031 L 51.140625 -55.150031 L 51.140625 -70.396125 L 35.894531 -70.396125 Z M 35.894531 -55.150031" transform="matrix(1,0,0,1,0,136.568)"/><path style="fill-rule:nonzero;fill:#cec6c9;fill-opacity:1;stroke-width:.75;stroke-linecap:square;stroke-linejoin:miter;stroke:#cec6c9;stroke-opacity:1;stroke-miterlimit:3.25" d="M 51.140625 -55.150031 L 66.386719 -55.150031 L 66.386719 -70.396125 L 51.140625 -70.396125 Z M 51.140625 -55.150031" transform="matrix(1,0,0,1,0,136.568)"/><path style="fill-rule:nonzero;fill:#f6e5cc;fill-opacity:1;stroke-width:.75;stroke-linecap:square;stroke-linejoin:miter;stroke:#f6e5cc;stroke-opacity:1;stroke-miterlimit:3.25" d="M 81.636719 -55.150031 L 96.882813 -55.150031 L 96.882813 -70.396125 L 81.636719 -70.396125 Z M 81.636719 -55.150031" transform="matrix(1,0,0,1,0,136.568)"/><path style="fill-rule:nonzero;fill:#7983c4;fill-opacity:1;stroke-width:.75;stroke-linecap:square;stroke-linejoin:miter;stroke:#7983c4;stroke-opacity:1;stroke-miterlimit:3.25" d="M 96.882813 -55.150031 L 112.128906 -55.150031 L 112.128906 -70.396125 L 96.882813 -70.396125 Z M 96.882813 -55.150031" transform="matrix(1,0,0,1,0,136.568)"/><path style="fill-rule:nonzero;fill:#9c9ec6;fill-opacity:1;stroke-width:.75;stroke-linecap:square;stroke-linejoin:miter;stroke:#9c9ec6;stroke-opacity:1;stroke-miterlimit:3.25" d="M 112.128906 -55.150031 L 127.375 -55.150031 L 127.375 -70.396125 L 112.128906 -70.396125 Z M 112.128906 -55.150031" transform="matrix(1,0,0,1,0,136.568)"/><path style="fill-rule:nonzero;fill:#adacc7;fill-opacity:1;stroke-width:.75;stroke-linecap:square;stroke-linejoin:miter;stroke:#adacc7;stroke-opacity:1;stroke-miterlimit:3.25" d="M 127.375 -55.150031 L 142.625 -55.150031 L 142.625 -70.396125 L 127.375 -70.396125 Z M 127.375 -55.150031" transform="matrix(1,0,0,1,0,136.568)"/><path style="fill-rule:nonzero;fill:#c7c1c9;fill-opacity:1;stroke-width:.75;stroke-linecap:square;stroke-linejoin:miter;stroke:#c7c1c9;stroke-opacity:1;stroke-miterlimit:3.25" d="M 157.871094 -55.150031 L 173.117188 -55.150031 L 173.117188 -70.396125 L 157.871094 -70.396125 Z M 157.871094 -55.150031" transform="matrix(1,0,0,1,0,136.568)"/><path style="fill-rule:nonzero;fill:#d8ceca;fill-opacity:1;stroke-width:.75;stroke-linecap:square;stroke-linejoin:miter;stroke:#d8ceca;stroke-opacity:1;stroke-miterlimit:3.25" d="M 173.117188 -55.150031 L 188.363281 -55.150031 L 188.363281 -70.396125 L 173.117188 -70.396125 Z M 173.117188 -55.150031" transform="matrix(1,0,0,1,0,136.568)"/><path style="fill-rule:nonzero;fill:#dfd3ca;fill-opacity:1;stroke-width:.75;stroke-linecap:square;stroke-linejoin:miter;stroke:#dfd3ca;stroke-opacity:1;stroke-miterlimit:3.25" d="M 188.363281 -55.150031 L 203.613281 -55.150031 L 203.613281 -70.396125 L 188.363281 -70.396125 Z M 188.363281 -55.150031" transform="matrix(1,0,0,1,0,136.568)"/><path style="fill-rule:nonzero;fill:#ecddcb;fill-opacity:1;stroke-width:.75;stroke-linecap:square;stroke-linejoin:miter;stroke:#ecddcb;stroke-opacity:1;stroke-miterlimit:3.25" d="M 203.613281 -55.150031 L 218.859375 -55.150031 L 218.859375 -70.396125 L 203.613281 -70.396125 Z M 203.613281 -55.150031" transform="matrix(1,0,0,1,0,136.568)"/><path style="fill-rule:nonzero;fill:#4a579b;fill-opacity:1;stroke-width:.75;stroke-linecap:square;stroke-linejoin:miter;stroke:#4a579b;stroke-opacity:1;stroke-miterlimit:3.25" d="M 234.105469 -55.150031 L 249.351563 -55.150031 L 249.351563 -70.396125 L 234.105469 -70.396125 Z M 234.105469 -55.150031" transform="matrix(1,0,0,1,0,136.568)"/><path style="fill-rule:nonzero;fill:#7d87c4;fill-opacity:1;stroke-width:.75;stroke-linecap:square;stroke-linejoin:miter;stroke:#7d87c4;stroke-opacity:1;stroke-miterlimit:3.25" d="M 249.351563 -55.150031 L 264.601563 -55.150031 L 264.601563 -70.396125 L 249.351563 -70.396125 Z M 249.351563 -55.150031" transform="matrix(1,0,0,1,0,136.568)"/><path style="fill-rule:nonzero;fill:#d1c9c9;fill-opacity:1;stroke-width:.75;stroke-linecap:square;stroke-linejoin:miter;stroke:#d1c9c9;stroke-opacity:1;stroke-miterlimit:3.25" d="M 5.398438 -70.396125 L 20.648438 -70.396125 L 20.648438 -85.642219 L 5.398438 -85.642219 Z M 5.398438 -70.396125" transform="matrix(1,0,0,1,0,136.568)"/><path style="fill-rule:nonzero;fill:#979ac5;fill-opacity:1;stroke-width:.75;stroke-linecap:square;stroke-linejoin:miter;stroke:#979ac5;stroke-opacity:1;stroke-miterlimit:3.25" d="M 35.894531 -70.396125 L 51.140625 -70.396125 L 51.140625 -85.642219 L 35.894531 -85.642219 Z M 35.894531 -70.396125" transform="matrix(1,0,0,1,0,136.568)"/><path style="fill-rule:nonzero;fill:#cec6c9;fill-opacity:1;stroke-width:.75;stroke-linecap:square;stroke-linejoin:miter;stroke:#cec6c9;stroke-opacity:1;stroke-miterlimit:3.25" d="M 66.386719 -70.396125 L 81.636719 -70.396125 L 81.636719 -85.642219 L 66.386719 -85.642219 Z M 66.386719 -70.396125" transform="matrix(1,0,0,1,0,136.568)"/><path style="fill-rule:nonzero;fill:#f6e5cc;fill-opacity:1;stroke-width:.75;stroke-linecap:square;stroke-linejoin:miter;stroke:#f6e5cc;stroke-opacity:1;stroke-miterlimit:3.25" d="M 96.882813 -70.396125 L 112.128906 -70.396125 L 112.128906 -85.642219 L 96.882813 -85.642219 Z M 96.882813 -70.396125" transform="matrix(1,0,0,1,0,136.568)"/><path style="fill-rule:nonzero;fill:#9c9ec6;fill-opacity:1;stroke-width:.75;stroke-linecap:square;stroke-linejoin:miter;stroke:#9c9ec6;stroke-opacity:1;stroke-miterlimit:3.25" d="M 127.375 -70.396125 L 142.625 -70.396125 L 142.625 -85.642219 L 127.375 -85.642219 Z M 127.375 -70.396125" transform="matrix(1,0,0,1,0,136.568)"/><path style="fill-rule:nonzero;fill:#bcb8c8;fill-opacity:1;stroke-width:.75;stroke-linecap:square;stroke-linejoin:miter;stroke:#bcb8c8;stroke-opacity:1;stroke-miterlimit:3.25" d="M 157.871094 -70.396125 L 173.117188 -70.396125 L 173.117188 -85.642219 L 157.871094 -85.642219 Z M 157.871094 -70.396125" transform="matrix(1,0,0,1,0,136.568)"/><path style="fill-rule:nonzero;fill:#d8ceca;fill-opacity:1;stroke-width:.75;stroke-linecap:square;stroke-linejoin:miter;stroke:#d8ceca;stroke-opacity:1;stroke-miterlimit:3.25" d="M 188.363281 -70.396125 L 203.613281 -70.396125 L 203.613281 -85.642219 L 188.363281 -85.642219 Z M 188.363281 -70.396125" transform="matrix(1,0,0,1,0,136.568)"/><path style="fill-rule:nonzero;fill:#ecddcb;fill-opacity:1;stroke-width:.75;stroke-linecap:square;stroke-linejoin:miter;stroke:#ecddcb;stroke-opacity:1;stroke-miterlimit:3.25" d="M 218.859375 -70.396125 L 234.105469 -70.396125 L 234.105469 -85.642219 L 218.859375 -85.642219 Z M 218.859375 -70.396125" transform="matrix(1,0,0,1,0,136.568)"/><path style="fill-rule:nonzero;fill:#4a579b;fill-opacity:1;stroke-width:.75;stroke-linecap:square;stroke-linejoin:miter;stroke:#4a579b;stroke-opacity:1;stroke-miterlimit:3.25" d="M 249.351563 -70.396125 L 264.601563 -70.396125 L 264.601563 -85.642219 L 249.351563 -85.642219 Z M 249.351563 -70.396125" transform="matrix(1,0,0,1,0,136.568)"/><path style="fill-rule:nonzero;fill:#a5a5c6;fill-opacity:1;stroke-width:.75;stroke-linecap:square;stroke-linejoin:miter;stroke:#a5a5c6;stroke-opacity:1;stroke-miterlimit:3.25" d="M 5.398438 -85.642219 L 20.648438 -85.642219 L 20.648438 -100.888313 L 5.398438 -100.888313 Z M 5.398438 -85.642219" transform="matrix(1,0,0,1,0,136.568)"/><path style="fill-rule:nonzero;fill:#d1c9c9;fill-opacity:1;stroke-width:.75;stroke-linecap:square;stroke-linejoin:miter;stroke:#d1c9c9;stroke-opacity:1;stroke-miterlimit:3.25" d="M 20.648438 -85.642219 L 35.894531 -85.642219 L 35.894531 -100.888313 L 20.648438 -100.888313 Z M 20.648438 -85.642219" transform="matrix(1,0,0,1,0,136.568)"/><path style="fill-rule:nonzero;fill:#979ac5;fill-opacity:1;stroke-width:.75;stroke-linecap:square;stroke-linejoin:miter;stroke:#979ac5;stroke-opacity:1;stroke-miterlimit:3.25" d="M 51.140625 -85.642219 L 66.386719 -85.642219 L 66.386719 -100.888313 L 51.140625 -100.888313 Z M 51.140625 -85.642219" transform="matrix(1,0,0,1,0,136.568)"/><path style="fill-rule:nonzero;fill:#b5b3c8;fill-opacity:1;stroke-width:.75;stroke-linecap:square;stroke-linejoin:miter;stroke:#b5b3c8;stroke-opacity:1;stroke-miterlimit:3.25" d="M 66.386719 -85.642219 L 81.636719 -85.642219 L 81.636719 -100.888313 L 66.386719 -100.888313 Z M 66.386719 -85.642219" transform="matrix(1,0,0,1,0,136.568)"/><path style="fill-rule:nonzero;fill:#e5d8cb;fill-opacity:1;stroke-width:.75;stroke-linecap:square;stroke-linejoin:miter;stroke:#e5d8cb;stroke-opacity:1;stroke-miterlimit:3.25" d="M 96.882813 -85.642219 L 112.128906 -85.642219 L 112.128906 -100.888313 L 96.882813 -100.888313 Z M 96.882813 -85.642219" transform="matrix(1,0,0,1,0,136.568)"/><path style="fill-rule:nonzero;fill:#f6e5cc;fill-opacity:1;stroke-width:.75;stroke-linecap:square;stroke-linejoin:miter;stroke:#f6e5cc;stroke-opacity:1;stroke-miterlimit:3.25" d="M 112.128906 -85.642219 L 127.375 -85.642219 L 127.375 -100.888313 L 112.128906 -100.888313 Z M 112.128906 -85.642219" transform="matrix(1,0,0,1,0,136.568)"/><path style="fill-rule:nonzero;fill:#9c9ec6;fill-opacity:1;stroke-width:.75;stroke-linecap:square;stroke-linejoin:miter;stroke:#9c9ec6;stroke-opacity:1;stroke-miterlimit:3.25" d="M 142.625 -85.642219 L 157.871094 -85.642219 L 157.871094 -100.888313 L 142.625 -100.888313 Z M 142.625 -85.642219" transform="matrix(1,0,0,1,0,136.568)"/><path style="fill-rule:nonzero;fill:#adacc7;fill-opacity:1;stroke-width:.75;stroke-linecap:square;stroke-linejoin:miter;stroke:#adacc7;stroke-opacity:1;stroke-miterlimit:3.25" d="M 157.871094 -85.642219 L 173.117188 -85.642219 L 173.117188 -100.888313 L 157.871094 -100.888313 Z M 157.871094 -85.642219" transform="matrix(1,0,0,1,0,136.568)"/><path style="fill-rule:nonzero;fill:#c7c1c9;fill-opacity:1;stroke-width:.75;stroke-linecap:square;stroke-linejoin:miter;stroke:#c7c1c9;stroke-opacity:1;stroke-miterlimit:3.25" d="M 188.363281 -85.642219 L 203.613281 -85.642219 L 203.613281 -100.888313 L 188.363281 -100.888313 Z M 188.363281 -85.642219" transform="matrix(1,0,0,1,0,136.568)"/><path style="fill-rule:nonzero;fill:#d8ceca;fill-opacity:1;stroke-width:.75;stroke-linecap:square;stroke-linejoin:miter;stroke:#d8ceca;stroke-opacity:1;stroke-miterlimit:3.25" d="M 203.613281 -85.642219 L 218.859375 -85.642219 L 218.859375 -100.888313 L 203.613281 -100.888313 Z M 203.613281 -85.642219" transform="matrix(1,0,0,1,0,136.568)"/><path style="fill-rule:nonzero;fill:#ecddcb;fill-opacity:1;stroke-width:.75;stroke-linecap:square;stroke-linejoin:miter;stroke:#ecddcb;stroke-opacity:1;stroke-miterlimit:3.25" d="M 234.105469 -85.642219 L 249.351563 -85.642219 L 249.351563 -100.888313 L 234.105469 -100.888313 Z M 234.105469 -85.642219" transform="matrix(1,0,0,1,0,136.568)"/><path style="fill-rule:nonzero;fill:#efe0cb;fill-opacity:1;stroke-width:.75;stroke-linecap:square;stroke-linejoin:miter;stroke:#efe0cb;stroke-opacity:1;stroke-miterlimit:3.25" d="M 249.351563 -85.642219 L 264.601563 -85.642219 L 264.601563 -100.888313 L 249.351563 -100.888313 Z M 249.351563 -85.642219" transform="matrix(1,0,0,1,0,136.568)"/><path style="fill-rule:nonzero;fill:#e8dbcb;fill-opacity:1;stroke-width:.75;stroke-linecap:square;stroke-linejoin:miter;stroke:#e8dbcb;stroke-opacity:1;stroke-miterlimit:3.25" d="M 5.398438 -100.888313 L 20.648438 -100.888313 L 20.648438 -116.138313 L 5.398438 -116.138313 Z M 5.398438 -100.888313" transform="matrix(1,0,0,1,0,136.568)"/><path style="fill-rule:nonzero;fill:#d1c9c9;fill-opacity:1;stroke-width:.75;stroke-linecap:square;stroke-linejoin:miter;stroke:#d1c9c9;stroke-opacity:1;stroke-miterlimit:3.25" d="M 35.894531 -100.888313 L 51.140625 -100.888313 L 51.140625 -116.138313 L 35.894531 -116.138313 Z M 35.894531 -100.888313" transform="matrix(1,0,0,1,0,136.568)"/><path style="fill-rule:nonzero;fill:#979ac5;fill-opacity:1;stroke-width:.75;stroke-linecap:square;stroke-linejoin:miter;stroke:#979ac5;stroke-opacity:1;stroke-miterlimit:3.25" d="M 66.386719 -100.888313 L 81.636719 -100.888313 L 81.636719 -116.138313 L 66.386719 -116.138313 Z M 66.386719 -100.888313" transform="matrix(1,0,0,1,0,136.568)"/><path style="fill-rule:nonzero;fill:#cec6c9;fill-opacity:1;stroke-width:.75;stroke-linecap:square;stroke-linejoin:miter;stroke:#cec6c9;stroke-opacity:1;stroke-miterlimit:3.25" d="M 96.882813 -100.888313 L 112.128906 -100.888313 L 112.128906 -116.138313 L 96.882813 -116.138313 Z M 96.882813 -100.888313" transform="matrix(1,0,0,1,0,136.568)"/><path style="fill-rule:nonzero;fill:#f6e5cc;fill-opacity:1;stroke-width:.75;stroke-linecap:square;stroke-linejoin:miter;stroke:#f6e5cc;stroke-opacity:1;stroke-miterlimit:3.25" d="M 127.375 -100.888313 L 142.625 -100.888313 L 142.625 -116.138313 L 127.375 -116.138313 Z M 127.375 -100.888313" transform="matrix(1,0,0,1,0,136.568)"/><path style="fill-rule:nonzero;fill:#9c9ec6;fill-opacity:1;stroke-width:.75;stroke-linecap:square;stroke-linejoin:miter;stroke:#9c9ec6;stroke-opacity:1;stroke-miterlimit:3.25" d="M 157.871094 -100.888313 L 173.117188 -100.888313 L 173.117188 -116.138313 L 157.871094 -116.138313 Z M 157.871094 -100.888313" transform="matrix(1,0,0,1,0,136.568)"/><path style="fill-rule:nonzero;fill:#bcb8c8;fill-opacity:1;stroke-width:.75;stroke-linecap:square;stroke-linejoin:miter;stroke:#bcb8c8;stroke-opacity:1;stroke-miterlimit:3.25" d="M 188.363281 -100.888313 L 203.613281 -100.888313 L 203.613281 -116.138313 L 188.363281 -116.138313 Z M 188.363281 -100.888313" transform="matrix(1,0,0,1,0,136.568)"/><path style="fill-rule:nonzero;fill:#d8ceca;fill-opacity:1;stroke-width:.75;stroke-linecap:square;stroke-linejoin:miter;stroke:#d8ceca;stroke-opacity:1;stroke-miterlimit:3.25" d="M 218.859375 -100.888313 L 234.105469 -100.888313 L 234.105469 -116.138313 L 218.859375 -116.138313 Z M 218.859375 -100.888313" transform="matrix(1,0,0,1,0,136.568)"/><path style="fill-rule:nonzero;fill:#ecddcb;fill-opacity:1;stroke-width:.75;stroke-linecap:square;stroke-linejoin:miter;stroke:#ecddcb;stroke-opacity:1;stroke-miterlimit:3.25" d="M 249.351563 -100.888313 L 264.601563 -100.888313 L 264.601563 -116.138313 L 249.351563 -116.138313 Z M 249.351563 -100.888313" transform="matrix(1,0,0,1,0,136.568)"/><path style="fill-rule:nonzero;fill:#888fc4;fill-opacity:1;stroke-width:.75;stroke-linecap:square;stroke-linejoin:miter;stroke:#888fc4;stroke-opacity:1;stroke-miterlimit:3.25" d="M 5.398438 -116.138313 L 20.648438 -116.138313 L 20.648438 -131.384406 L 5.398438 -131.384406 Z M 5.398438 -116.138313" transform="matrix(1,0,0,1,0,136.568)"/><path style="fill-rule:nonzero;fill:#e8dbcb;fill-opacity:1;stroke-width:.75;stroke-linecap:square;stroke-linejoin:miter;stroke:#e8dbcb;stroke-opacity:1;stroke-miterlimit:3.25" d="M 20.648438 -116.138313 L 35.894531 -116.138313 L 35.894531 -131.384406 L 20.648438 -131.384406 Z M 20.648438 -116.138313" transform="matrix(1,0,0,1,0,136.568)"/><path style="fill-rule:nonzero;fill:#a5a5c6;fill-opacity:1;stroke-width:.75;stroke-linecap:square;stroke-linejoin:miter;stroke:#a5a5c6;stroke-opacity:1;stroke-miterlimit:3.25" d="M 35.894531 -116.138313 L 51.140625 -116.138313 L 51.140625 -131.384406 L 35.894531 -131.384406 Z M 35.894531 -116.138313" transform="matrix(1,0,0,1,0,136.568)"/><path style="fill-rule:nonzero;fill:#d1c9c9;fill-opacity:1;stroke-width:.75;stroke-linecap:square;stroke-linejoin:miter;stroke:#d1c9c9;stroke-opacity:1;stroke-miterlimit:3.25" d="M 51.140625 -116.138313 L 66.386719 -116.138313 L 66.386719 -131.384406 L 51.140625 -131.384406 Z M 51.140625 -116.138313" transform="matrix(1,0,0,1,0,136.568)"/><path style="fill-rule:nonzero;fill:#f2e3cc;fill-opacity:1;stroke-width:.75;stroke-linecap:square;stroke-linejoin:miter;stroke:#f2e3cc;stroke-opacity:1;stroke-miterlimit:3.25" d="M 66.386719 -116.138313 L 81.636719 -116.138313 L 81.636719 -131.384406 L 66.386719 -131.384406 Z M 66.386719 -116.138313" transform="matrix(1,0,0,1,0,136.568)"/><path style="fill-rule:nonzero;fill:#979ac5;fill-opacity:1;stroke-width:.75;stroke-linecap:square;stroke-linejoin:miter;stroke:#979ac5;stroke-opacity:1;stroke-miterlimit:3.25" d="M 81.636719 -116.138313 L 96.882813 -116.138313 L 96.882813 -131.384406 L 81.636719 -131.384406 Z M 81.636719 -116.138313" transform="matrix(1,0,0,1,0,136.568)"/><path style="fill-rule:nonzero;fill:#b5b3c8;fill-opacity:1;stroke-width:.75;stroke-linecap:square;stroke-linejoin:miter;stroke:#b5b3c8;stroke-opacity:1;stroke-miterlimit:3.25" d="M 96.882813 -116.138313 L 112.128906 -116.138313 L 112.128906 -131.384406 L 96.882813 -131.384406 Z M 96.882813 -116.138313" transform="matrix(1,0,0,1,0,136.568)"/><path style="fill-rule:nonzero;fill:#cec6c9;fill-opacity:1;stroke-width:.75;stroke-linecap:square;stroke-linejoin:miter;stroke:#cec6c9;stroke-opacity:1;stroke-miterlimit:3.25" d="M 112.128906 -116.138313 L 127.375 -116.138313 L 127.375 -131.384406 L 112.128906 -131.384406 Z M 112.128906 -116.138313" transform="matrix(1,0,0,1,0,136.568)"/><path style="fill-rule:nonzero;fill:#e5d8cb;fill-opacity:1;stroke-width:.75;stroke-linecap:square;stroke-linejoin:miter;stroke:#e5d8cb;stroke-opacity:1;stroke-miterlimit:3.25" d="M 127.375 -116.138313 L 142.625 -116.138313 L 142.625 -131.384406 L 127.375 -131.384406 Z M 127.375 -116.138313" transform="matrix(1,0,0,1,0,136.568)"/><path style="fill-rule:nonzero;fill:#f6e5cc;fill-opacity:1;stroke-width:.75;stroke-linecap:square;stroke-linejoin:miter;stroke:#f6e5cc;stroke-opacity:1;stroke-miterlimit:3.25" d="M 142.625 -116.138313 L 157.871094 -116.138313 L 157.871094 -131.384406 L 142.625 -131.384406 Z M 142.625 -116.138313" transform="matrix(1,0,0,1,0,136.568)"/><path style="fill-rule:nonzero;fill:#7983c4;fill-opacity:1;stroke-width:.75;stroke-linecap:square;stroke-linejoin:miter;stroke:#7983c4;stroke-opacity:1;stroke-miterlimit:3.25" d="M 157.871094 -116.138313 L 173.117188 -116.138313 L 173.117188 -131.384406 L 157.871094 -131.384406 Z M 157.871094 -116.138313" transform="matrix(1,0,0,1,0,136.568)"/><path style="fill-rule:nonzero;fill:#9c9ec6;fill-opacity:1;stroke-width:.75;stroke-linecap:square;stroke-linejoin:miter;stroke:#9c9ec6;stroke-opacity:1;stroke-miterlimit:3.25" d="M 173.117188 -116.138313 L 188.363281 -116.138313 L 188.363281 -131.384406 L 173.117188 -131.384406 Z M 173.117188 -116.138313" transform="matrix(1,0,0,1,0,136.568)"/><path style="fill-rule:nonzero;fill:#adacc7;fill-opacity:1;stroke-width:.75;stroke-linecap:square;stroke-linejoin:miter;stroke:#adacc7;stroke-opacity:1;stroke-miterlimit:3.25" d="M 188.363281 -116.138313 L 203.613281 -116.138313 L 203.613281 -131.384406 L 188.363281 -131.384406 Z M 188.363281 -116.138313" transform="matrix(1,0,0,1,0,136.568)"/><path style="fill-rule:nonzero;fill:#bcb8c8;fill-opacity:1;stroke-width:.75;stroke-linecap:square;stroke-linejoin:miter;stroke:#bcb8c8;stroke-opacity:1;stroke-miterlimit:3.25" d="M 203.613281 -116.138313 L 218.859375 -116.138313 L 218.859375 -131.384406 L 203.613281 -131.384406 Z M 203.613281 -116.138313" transform="matrix(1,0,0,1,0,136.568)"/><path style="fill-rule:nonzero;fill:#c7c1c9;fill-opacity:1;stroke-width:.75;stroke-linecap:square;stroke-linejoin:miter;stroke:#c7c1c9;stroke-opacity:1;stroke-miterlimit:3.25" d="M 218.859375 -116.138313 L 234.105469 -116.138313 L 234.105469 -131.384406 L 218.859375 -131.384406 Z M 218.859375 -116.138313" transform="matrix(1,0,0,1,0,136.568)"/><path style="fill-rule:nonzero;fill:#d8ceca;fill-opacity:1;stroke-width:.75;stroke-linecap:square;stroke-linejoin:miter;stroke:#d8ceca;stroke-opacity:1;stroke-miterlimit:3.25" d="M 234.105469 -116.138313 L 249.351563 -116.138313 L 249.351563 -131.384406 L 234.105469 -131.384406 Z M 234.105469 -116.138313" transform="matrix(1,0,0,1,0,136.568)"/><path style="fill-rule:nonzero;fill:#dfd3ca;fill-opacity:1;stroke-width:.75;stroke-linecap:square;stroke-linejoin:miter;stroke:#dfd3ca;stroke-opacity:1;stroke-miterlimit:3.25" d="M 249.351563 -116.138313 L 264.601563 -116.138313 L 264.601563 -131.384406 L 249.351563 -131.384406 Z M 249.351563 -116.138313" transform="matrix(1,0,0,1,0,136.568)"/></g></svg>